<?xml version="1.0" encoding="iso-8859-1"?>
<!-- Generator: Adobe Illustrator 19.0.0, SVG Export Plug-In . SVG Version: 6.00 Build 0)  -->
<svg xmlns="http://www.w3.org/2000/svg" xmlns:xlink="http://www.w3.org/1999/xlink" version="1.1" id="Layer_1" x="0px" y="0px" viewBox="0 0 512 512" style="enable-background:new 0 0 512 512;" xml:space="preserve">
<g>
	<g>
		<path d="M217.043,211.478h-66.783c-9.217,0-16.696,7.473-16.696,16.696v100.174c0,9.223,7.479,16.696,16.696,16.696h66.783    c9.217,0,16.696-7.473,16.696-16.696V228.174C233.739,218.951,226.261,211.478,217.043,211.478z"/>
	</g>
</g>
<g>
	<g>
		<path d="M350.609,0h-66.783c-9.217,0-16.696,7.473-16.696,16.696v178.087c0,9.223,7.479,16.696,16.696,16.696h66.783    c9.217,0,16.696-7.473,16.696-16.696V16.696C367.304,7.473,359.826,0,350.609,0z"/>
	</g>
</g>
<g>
	<g>
		<path d="M500.87,479.632V16.696C500.87,7.473,493.391,0,484.174,0h-66.783c-9.217,0-16.696,7.473-16.696,16.696v461.913H100.174    v-116.87c0-9.223-7.479-16.696-16.696-16.696H33.391V16.696C33.391,7.473,25.913,0,16.696,0S0,7.473,0,16.696    c0,236.777,0,219.403,0,478.609C0,504.527,7.479,512,16.696,512c104.416,0,375.141,0,478.609,0    c9.217,0,16.696-7.473,16.696-16.696C512,488.044,507.339,481.931,500.87,479.632z"/>
	</g>
</g>
<g>
</g>
<g>
</g>
<g>
</g>
<g>
</g>
<g>
</g>
<g>
</g>
<g>
</g>
<g>
</g>
<g>
</g>
<g>
</g>
<g>
</g>
<g>
</g>
<g>
</g>
<g>
</g>
<g>
</g>
</svg>
