<?xml version="1.0" encoding="iso-8859-1"?>
<!-- Generator: Adobe Illustrator 19.0.0, SVG Export Plug-In . SVG Version: 6.00 Build 0)  -->
<svg xmlns="http://www.w3.org/2000/svg" xmlns:xlink="http://www.w3.org/1999/xlink" version="1.1" id="Layer_1" x="0px" y="0px" viewBox="0 0 512 512" style="enable-background:new 0 0 512 512;" xml:space="preserve">
<g>
	<g>
		<path d="M495.304,478.609H33.391V16.696C33.391,7.473,25.913,0,16.696,0S0,7.473,0,16.696v478.609C0,504.527,7.479,512,16.696,512    h478.609c9.217,0,16.696-7.473,16.696-16.696C512,486.082,504.521,478.609,495.304,478.609z"/>
	</g>
</g>
<g>
	<g>
		<path d="M150.261,345.043c-27.619,0-50.087,22.468-50.087,50.087s22.468,50.087,50.087,50.087    c27.619,0,50.087-22.468,50.087-50.087S177.88,345.043,150.261,345.043z"/>
	</g>
</g>
<g>
	<g>
		<path d="M384,44.522c-46.032,0-83.478,37.446-83.478,83.478c0,46.032,37.446,83.478,83.478,83.478s83.478-37.446,83.478-83.478    C467.478,81.968,430.032,44.522,384,44.522z"/>
	</g>
</g>
<g>
	<g>
		<path d="M183.652,144.696c-27.619,0-50.087,22.468-50.087,50.087c0,27.619,22.468,50.087,50.087,50.087    c27.619,0,50.087-22.468,50.087-50.087C233.739,167.164,211.271,144.696,183.652,144.696z"/>
	</g>
</g>
<g>
	<g>
		<path d="M333.913,244.87c-36.826,0-66.783,29.956-66.783,66.783c0,36.826,29.956,66.783,66.783,66.783    c36.826,0,66.783-29.956,66.783-66.783C400.696,274.826,370.739,244.87,333.913,244.87z"/>
	</g>
</g>
<g>
</g>
<g>
</g>
<g>
</g>
<g>
</g>
<g>
</g>
<g>
</g>
<g>
</g>
<g>
</g>
<g>
</g>
<g>
</g>
<g>
</g>
<g>
</g>
<g>
</g>
<g>
</g>
<g>
</g>
</svg>
