<?xml version="1.0" encoding="iso-8859-1"?>
<!-- Generator: Adobe Illustrator 19.0.0, SVG Export Plug-In . SVG Version: 6.00 Build 0)  -->
<svg xmlns="http://www.w3.org/2000/svg" xmlns:xlink="http://www.w3.org/1999/xlink" version="1.1" id="Layer_1" x="0px" y="0px" viewBox="0 0 512 512" style="enable-background:new 0 0 512 512;" xml:space="preserve">
<g>
	<g>
		<path d="M495.304,478.609H478.78l-95.976-239.94c-5.579-13.961-25.423-13.955-31,0l-11.457,28.646l57.628,211.294h-34.615    l-96.818-355c-4.441-16.315-27.76-16.368-32.217,0l-61.119,224.112l98.554,114.991c4.082,4.755,7.075,10.174,9.076,15.896h-39.423    L146.238,367.57c-6.348-7.402-19-7.402-25.347,0l-87.5,102.084V16.696C33.391,7.473,25.913,0,16.696,0S0,7.473,0,16.696v478.609    C0,504.527,7.479,512,16.696,512c164.61,0,311.74,0,478.609,0c9.217,0,16.696-7.473,16.696-16.696    C512,486.082,504.521,478.609,495.304,478.609z"/>
	</g>
</g>
<g>
</g>
<g>
</g>
<g>
</g>
<g>
</g>
<g>
</g>
<g>
</g>
<g>
</g>
<g>
</g>
<g>
</g>
<g>
</g>
<g>
</g>
<g>
</g>
<g>
</g>
<g>
</g>
<g>
</g>
</svg>
