<?xml version="1.0" encoding="iso-8859-1"?>
<!-- Generator: Adobe Illustrator 19.0.0, SVG Export Plug-In . SVG Version: 6.00 Build 0)  -->
<svg xmlns="http://www.w3.org/2000/svg" xmlns:xlink="http://www.w3.org/1999/xlink" version="1.1" id="Layer_1" x="0px" y="0px" viewBox="0 0 512 512" style="enable-background:new 0 0 512 512;" xml:space="preserve">
<g>
	<g>
		<path d="M495.304,478.609H33.391v-66.783h270.207c6.915,19.391,25.275,33.391,47.01,33.391c27.619,0,50.087-22.468,50.087-50.087    s-22.468-50.087-50.087-50.087c-21.737,0-40.095,14-47.01,33.391H33.391V278.261h370.381c6.915,19.391,25.275,33.391,47.01,33.391    c27.619,0,50.087-22.468,50.087-50.087c0-27.619-22.468-50.087-50.087-50.087c-21.737,0-40.095,14-47.01,33.391H33.391V144.696    h236.816c6.915,19.391,25.275,33.391,47.01,33.391c27.619,0,50.087-22.468,50.087-50.087c0-27.619-22.468-50.087-50.087-50.087    c-21.737,0-40.095,14-47.01,33.391H33.391V16.696C33.391,7.473,25.913,0,16.696,0S0,7.473,0,16.696v478.609    C0,504.527,7.479,512,16.696,512h478.609c9.217,0,16.696-7.473,16.696-16.696C512,486.082,504.521,478.609,495.304,478.609z"/>
	</g>
</g>
<g>
</g>
<g>
</g>
<g>
</g>
<g>
</g>
<g>
</g>
<g>
</g>
<g>
</g>
<g>
</g>
<g>
</g>
<g>
</g>
<g>
</g>
<g>
</g>
<g>
</g>
<g>
</g>
<g>
</g>
</svg>
