<?xml version="1.0" encoding="iso-8859-1"?>
<!-- Generator: Adobe Illustrator 19.0.0, SVG Export Plug-In . SVG Version: 6.00 Build 0)  -->
<svg xmlns="http://www.w3.org/2000/svg" xmlns:xlink="http://www.w3.org/1999/xlink" version="1.1" id="Layer_1" x="0px" y="0px" viewBox="0 0 512 512" style="enable-background:new 0 0 512 512;" xml:space="preserve">
<g>
	<g>
		<path d="M495.304,478.609H33.391v-75.786l61.064-52.187c6.776,3.426,14.318,5.538,22.414,5.538c8.281,0,15.981-2.213,22.87-5.786    l31.408,24.806c-2.669,6.12-4.191,12.846-4.191,19.936c0,27.619,22.468,50.087,50.087,50.087    c27.619,0,50.087-22.468,50.087-50.087c0-7.352-1.683-14.284-4.541-20.578l65.717-57.246c6.747,3.388,14.25,5.476,22.302,5.476    c8.281,0,15.981-2.213,22.87-5.786l31.408,24.806c-2.669,6.12-4.191,12.846-4.191,19.936c0,27.619,22.468,50.087,50.087,50.087    c27.619,0,50.087-22.468,50.087-50.087c0-27.619-22.468-50.087-50.087-50.087c-8.281,0-15.981,2.213-22.87,5.786l-31.408-24.806    c2.669-6.12,4.191-12.846,4.191-19.936c0-27.619-22.468-50.087-50.087-50.087c-27.619,0-50.087,22.468-50.087,50.087    c0,7.352,1.683,14.284,4.541,20.578l-65.717,57.246c-6.747-3.388-14.25-5.476-22.302-5.476c-8.281,0-15.981,2.213-22.87,5.786    l-31.408-24.806c2.669-6.12,4.191-12.846,4.191-19.936c0-27.619-22.468-50.087-50.087-50.087    c-27.619,0-50.087,22.468-50.087,50.087c0,7.3,1.652,14.194,4.473,20.454l-37.865,32.359V201.042l62.885-72.026    c6.299,2.862,13.235,4.549,20.594,4.549c7.211,0,14.032-1.598,20.234-4.353l35.497,42.959c-3.488,6.825-5.644,14.435-5.644,22.611    c0,27.619,22.468,50.087,50.087,50.087c27.619,0,50.087-22.468,50.087-50.087c0-8.008-2.065-15.479-5.422-22.198l68.215-77.007    c6.323,2.887,13.291,4.597,20.685,4.597c7.211,0,14.032-1.598,20.234-4.353l35.497,42.959c-3.488,6.825-5.644,14.435-5.644,22.611    c0,27.619,22.468,50.087,50.087,50.087c27.619,0,50.087-22.468,50.087-50.087c0-27.619-22.468-50.087-50.087-50.087    c-7.211,0-14.032,1.598-20.234,4.353l-35.497-42.959c3.488-6.825,5.644-14.435,5.644-22.611C400.696,22.468,378.228,0,350.609,0    c-27.619,0-50.087,22.468-50.087,50.087c0,8.008,2.065,15.479,5.422,22.199l-68.215,77.007    c-6.323-2.887-13.291-4.597-20.685-4.597c-7.211,0-14.032,1.598-20.234,4.353l-35.497-42.959    c3.488-6.825,5.644-14.435,5.644-22.611c0-27.619-22.468-50.087-50.087-50.087c-27.619,0-50.087,22.468-50.087,50.087    c0,8.045,2.085,15.546,5.471,22.289l-38.862,44.511V16.696C33.391,7.473,25.913,0,16.696,0S0,7.473,0,16.696v478.609    C0,504.527,7.479,512,16.696,512h478.609c9.217,0,16.696-7.473,16.696-16.696C512,486.082,504.521,478.609,495.304,478.609z"/>
	</g>
</g>
<g>
</g>
<g>
</g>
<g>
</g>
<g>
</g>
<g>
</g>
<g>
</g>
<g>
</g>
<g>
</g>
<g>
</g>
<g>
</g>
<g>
</g>
<g>
</g>
<g>
</g>
<g>
</g>
<g>
</g>
</svg>
