<?xml version="1.0" encoding="iso-8859-1"?>
<!-- Generator: Adobe Illustrator 19.0.0, SVG Export Plug-In . SVG Version: 6.00 Build 0)  -->
<svg xmlns="http://www.w3.org/2000/svg" xmlns:xlink="http://www.w3.org/1999/xlink" version="1.1" id="Layer_1" x="0px" y="0px" viewBox="0 0 512 512" style="enable-background:new 0 0 512 512;" xml:space="preserve">
<g>
	<g>
		<path d="M495.304,244.87H264.2c-11.075-54.174-47.151-200.348-113.939-200.348S47.397,190.695,36.322,244.87h-2.931V16.696    C33.391,7.473,25.913,0,16.696,0S0,7.473,0,16.696v478.609C0,504.527,7.479,512,16.696,512s16.696-7.473,16.696-16.696V278.261    H236.67c11.075,54.174,47.151,200.348,113.939,200.348s102.864-146.174,113.939-200.348h30.757    c9.217,0,16.696-7.473,16.696-16.696C512,252.343,504.521,244.87,495.304,244.87z"/>
	</g>
</g>
<g>
</g>
<g>
</g>
<g>
</g>
<g>
</g>
<g>
</g>
<g>
</g>
<g>
</g>
<g>
</g>
<g>
</g>
<g>
</g>
<g>
</g>
<g>
</g>
<g>
</g>
<g>
</g>
<g>
</g>
</svg>
