<?xml version="1.0" encoding="iso-8859-1"?>
<!-- Generator: Adobe Illustrator 19.0.0, SVG Export Plug-In . SVG Version: 6.00 Build 0)  -->
<svg xmlns="http://www.w3.org/2000/svg" xmlns:xlink="http://www.w3.org/1999/xlink" version="1.1" id="Layer_1" x="0px" y="0px" viewBox="0 0 512 512" style="enable-background:new 0 0 512 512;" xml:space="preserve">
<g>
	<g>
		<path d="M495.304,478.609h-61.217V324.13l-66.783-66.783v221.261h-33.391V257.348L267.13,324.13v154.478h-33.391V324.13    l-66.783-66.783v221.261h-33.391V223.957l-66.783-66.783v321.435H33.391V16.696C33.391,7.473,25.913,0,16.696,0S0,7.473,0,16.696    v478.609C0,504.527,7.479,512,16.696,512h478.609c9.217,0,16.696-7.473,16.696-16.696    C512,486.082,504.521,478.609,495.304,478.609z"/>
	</g>
</g>
<g>
	<g>
		<path d="M495.304,166.957c-9.217,0-16.696,7.473-16.696,16.696v26.478L373.543,105.065c-6.521-6.521-17.087-6.521-23.609,0    l-88.369,88.37L106.413,38.283c-6.521-6.521-17.087-6.521-23.609,0c-6.521,6.516-6.521,17.092,0,23.609L249.76,228.848    c6.521,6.521,17.087,6.521,23.609,0l88.37-88.37L455,233.739h-26.478c-9.217,0-16.696,7.473-16.696,16.696    c0,9.223,7.479,16.696,16.696,16.696h66.783c2.155,0,4.201-0.442,6.093-1.186c0.082-0.032,0.168-0.045,0.25-0.078    c4.113-1.693,7.394-4.973,9.088-9.086c0.034-0.085,0.047-0.171,0.08-0.256c0.742-1.891,1.184-3.935,1.184-6.089v-66.783    C512,174.43,504.521,166.957,495.304,166.957z"/>
	</g>
</g>
<g>
</g>
<g>
</g>
<g>
</g>
<g>
</g>
<g>
</g>
<g>
</g>
<g>
</g>
<g>
</g>
<g>
</g>
<g>
</g>
<g>
</g>
<g>
</g>
<g>
</g>
<g>
</g>
<g>
</g>
</svg>
