<?xml version="1.0" encoding="iso-8859-1"?>
<!-- Generator: Adobe Illustrator 19.0.0, SVG Export Plug-In . SVG Version: 6.00 Build 0)  -->
<svg xmlns="http://www.w3.org/2000/svg" xmlns:xlink="http://www.w3.org/1999/xlink" version="1.1" id="Layer_1" x="0px" y="0px" viewBox="0 0 511.999 511.999" style="enable-background:new 0 0 511.999 511.999;" xml:space="preserve">
<g>
	<g>
		<path d="M437.097,40.716c-8.699-8.7-22.791-8.7-31.491,0c-8.7,8.693-8.7,22.797,0,31.491    c39.886,39.887,61.852,93.018,61.852,149.602s-21.966,109.716-61.852,149.602c-39.897,39.887-93.029,61.858-149.606,61.858    s-109.709-21.972-149.606-61.858c-39.886-39.887-61.852-93.018-61.852-149.602s21.966-109.715,61.852-149.602    c8.7-8.693,8.7-22.797,0-31.491c-8.699-8.7-22.791-8.7-31.491,0C26.599,89.013,0,153.329,0,221.809s26.599,132.796,74.901,181.092    c48.303,48.303,112.624,74.907,181.099,74.907s132.796-26.603,181.098-74.906c48.303-48.298,74.902-112.613,74.902-181.093    S485.4,89.013,437.097,40.716z"/>
	</g>
</g>
<g>
	<g>
		<path d="M381.922,95.875c-33.688-33.677-78.403-52.228-125.923-52.228c-12.299,0-22.27,9.971-22.27,22.27    c0,12.299,9.972,22.27,22.27,22.27c35.624,0,69.16,13.919,94.432,39.185c25.271,25.278,39.19,58.814,39.19,94.437    s-13.918,69.16-39.19,94.432s-58.808,39.19-94.432,39.19s-69.16-13.919-94.432-39.185c-25.271-25.278-39.19-58.814-39.19-94.437    c0-12.299-9.971-22.27-22.27-22.27c-12.299,0-22.27,9.972-22.27,22.27c0,47.52,18.551,92.246,52.239,125.934    c33.688,33.677,78.403,52.228,125.923,52.228s92.235-18.551,125.923-52.234s52.24-78.408,52.24-125.929    S415.611,129.563,381.922,95.875z"/>
	</g>
</g>
<g>
	<g>
		<path d="M338.1,164.326c-7.057-10.058-20.922-12.533-31.024-5.47c-10.07,7.052-12.516,20.939-5.47,31.014    c17.606,25.152,11.473,59.934-13.68,77.544c-12.147,8.509-26.936,11.765-41.594,9.189c-14.668-2.588-27.435-10.705-35.939-22.857    c-7.046-10.064-20.922-12.538-31.024-5.47c-10.07,7.052-12.516,20.939-5.47,31.014c15.343,21.901,38.321,36.527,64.701,41.176    c5.894,1.038,11.798,1.554,17.659,1.554c20.367,0,40.212-6.209,57.22-18.124C358.75,272.203,369.787,209.589,338.1,164.326z"/>
	</g>
</g>
<g>
</g>
<g>
</g>
<g>
</g>
<g>
</g>
<g>
</g>
<g>
</g>
<g>
</g>
<g>
</g>
<g>
</g>
<g>
</g>
<g>
</g>
<g>
</g>
<g>
</g>
<g>
</g>
<g>
</g>
</svg>
