<?xml version="1.0" encoding="iso-8859-1"?>
<!-- Generator: Adobe Illustrator 19.0.0, SVG Export Plug-In . SVG Version: 6.00 Build 0)  -->
<svg xmlns="http://www.w3.org/2000/svg" xmlns:xlink="http://www.w3.org/1999/xlink" version="1.1" id="Layer_1" x="0px" y="0px" viewBox="0 0 512 512" style="enable-background:new 0 0 512 512;" xml:space="preserve">
<g>
	<g>
		<polygon points="123.738,233.739 172.633,321.55 172.633,411.826 339.478,411.826 339.478,321.55 388.262,233.739   "/>
	</g>
</g>
<g>
	<g>
		<polygon points="68.086,133.565 105.187,200.348 406.813,200.348 443.914,133.565   "/>
	</g>
</g>
<g>
	<g>
		<path d="M489.739,0H22.261C9.55,0,1.494,13.682,7.663,24.804l41.872,75.37h412.93l41.872-75.37    C510.506,13.682,502.451,0,489.739,0z"/>
	</g>
</g>
<g>
	<g>
		<path d="M172.633,445.217v50.087c0,9.223,7.367,16.696,16.584,16.696h133.565c9.217,0,16.696-7.473,16.696-16.696v-50.087H172.633    z"/>
	</g>
</g>
<g>
</g>
<g>
</g>
<g>
</g>
<g>
</g>
<g>
</g>
<g>
</g>
<g>
</g>
<g>
</g>
<g>
</g>
<g>
</g>
<g>
</g>
<g>
</g>
<g>
</g>
<g>
</g>
<g>
</g>
</svg>
