<?xml version="1.0" encoding="iso-8859-1"?>
<!-- Generator: Adobe Illustrator 19.0.0, SVG Export Plug-In . SVG Version: 6.00 Build 0)  -->
<svg xmlns="http://www.w3.org/2000/svg" xmlns:xlink="http://www.w3.org/1999/xlink" version="1.1" id="Layer_1" x="0px" y="0px" viewBox="0 0 512 512" style="enable-background:new 0 0 512 512;" xml:space="preserve">
<g>
	<g>
		<path d="M417.391,311.652H250.435c-27.619,0-50.087,22.468-50.087,50.087c0,27.619,22.468,50.087,50.087,50.087h166.956    c27.619,0,50.087-22.468,50.087-50.087C467.478,334.12,445.01,311.652,417.391,311.652z"/>
	</g>
</g>
<g>
	<g>
		<path d="M283.826,178.087H116.87c-27.619,0-50.087,22.468-50.087,50.087c0,27.619,22.468,50.087,50.087,50.087h166.957    c27.619,0,50.087-22.468,50.087-50.087C333.913,200.555,311.445,178.087,283.826,178.087z"/>
	</g>
</g>
<g>
	<g>
		<path d="M450.783,44.522H283.826c-27.619,0-50.087,22.468-50.087,50.087s22.468,50.087,50.087,50.087h166.956    c27.619,0,50.087-22.468,50.087-50.087S478.402,44.522,450.783,44.522z"/>
	</g>
</g>
<g>
	<g>
		<path d="M495.304,478.609H33.391V16.696C33.391,7.479,25.918,0,16.696,0C7.473,0,0,7.479,0,16.696v478.609    C0,504.521,7.473,512,16.696,512h478.609c9.223,0,16.696-7.479,16.696-16.696C512,486.087,504.527,478.609,495.304,478.609z"/>
	</g>
</g>
<g>
</g>
<g>
</g>
<g>
</g>
<g>
</g>
<g>
</g>
<g>
</g>
<g>
</g>
<g>
</g>
<g>
</g>
<g>
</g>
<g>
</g>
<g>
</g>
<g>
</g>
<g>
</g>
<g>
</g>
</svg>
