<?xml version="1.0" encoding="iso-8859-1"?>
<!-- Generator: Adobe Illustrator 19.0.0, SVG Export Plug-In . SVG Version: 6.00 Build 0)  -->
<svg xmlns="http://www.w3.org/2000/svg" xmlns:xlink="http://www.w3.org/1999/xlink" version="1.1" id="Layer_1" x="0px" y="0px" viewBox="0 0 512 512" style="enable-background:new 0 0 512 512;" xml:space="preserve">
<g>
	<g>
		<path d="M136.533,68.267c-37.645,0-68.267,30.622-68.267,68.267S98.889,204.8,136.533,204.8s68.267-30.622,68.267-68.267    S174.178,68.267,136.533,68.267z M136.533,170.667c-18.822,0-34.133-15.311-34.133-34.133s15.311-34.133,34.133-34.133    s34.133,15.311,34.133,34.133S155.356,170.667,136.533,170.667z"/>
	</g>
</g>
<g>
	<g>
		<path d="M375.467,307.2c-37.645,0-68.267,30.622-68.267,68.267s30.622,68.267,68.267,68.267s68.267-30.622,68.267-68.267    S413.111,307.2,375.467,307.2z M375.467,409.6c-18.822,0-34.133-15.311-34.133-34.133s15.311-34.133,34.133-34.133    s34.133,15.311,34.133,34.133S394.289,409.6,375.467,409.6z"/>
	</g>
</g>
<g>
	<g>
		<path d="M375.467,102.4c-18.822,0-34.133,15.311-34.133,34.133s15.311,34.133,34.133,34.133s34.133-15.311,34.133-34.133    S394.289,102.4,375.467,102.4z"/>
	</g>
</g>
<g>
	<g>
		<path d="M441.419,256C483.454,232.699,512,187.904,512,136.533C512,61.25,450.75,0,375.467,0C324.096,0,279.301,28.546,256,70.581    C232.699,28.546,187.904,0,136.533,0C61.25,0,0,61.25,0,136.533C0,187.904,28.546,232.699,70.581,256    C28.546,279.301,0,324.096,0,375.467C0,450.75,61.25,512,136.533,512c51.371,0,96.166-28.546,119.467-70.581    C279.301,483.454,324.096,512,375.467,512C450.75,512,512,450.75,512,375.467C512,324.096,483.454,279.301,441.419,256z     M136.533,443.733c-37.645,0-68.267-30.622-68.267-68.267S98.889,307.2,136.533,307.2s68.267,30.622,68.267,68.267    S174.178,443.733,136.533,443.733z M238.933,238.933h-102.4c-56.461,0-102.4-45.939-102.4-102.4s45.939-102.4,102.4-102.4    s102.4,45.939,102.4,102.4V238.933z M375.467,68.267c37.645,0,68.267,30.622,68.267,68.267S413.111,204.8,375.467,204.8    S307.2,174.178,307.2,136.533S337.822,68.267,375.467,68.267z M375.467,477.867c-56.461,0-102.4-45.939-102.4-102.4v-102.4h102.4    c56.461,0,102.4,45.939,102.4,102.4S431.928,477.867,375.467,477.867z"/>
	</g>
</g>
<g>
	<g>
		<path d="M136.533,341.333c-18.822,0-34.133,15.311-34.133,34.133s15.311,34.133,34.133,34.133s34.133-15.311,34.133-34.133    S155.356,341.333,136.533,341.333z"/>
	</g>
</g>
<g>
</g>
<g>
</g>
<g>
</g>
<g>
</g>
<g>
</g>
<g>
</g>
<g>
</g>
<g>
</g>
<g>
</g>
<g>
</g>
<g>
</g>
<g>
</g>
<g>
</g>
<g>
</g>
<g>
</g>
</svg>
