<?xml version="1.0" encoding="iso-8859-1"?>
<!-- Generator: Adobe Illustrator 19.0.0, SVG Export Plug-In . SVG Version: 6.00 Build 0)  -->
<svg xmlns="http://www.w3.org/2000/svg" xmlns:xlink="http://www.w3.org/1999/xlink" version="1.1" id="Layer_1" x="0px" y="0px" viewBox="0 0 512 512" style="enable-background:new 0 0 512 512;" xml:space="preserve">
<g>
	<g>
		<path d="M434.088,378.435c-12.364,0-23.912,3.437-33.852,9.316l-56.328-56.328c14.622-19.516,23.397-43.652,23.397-69.858    s-8.775-50.342-23.398-69.857l67.458-67.458c9.941,5.879,21.49,9.316,33.852,9.316c36.826,0,66.783-29.956,66.783-66.783    S482.044,0,445.218,0c-36.826,0-66.783,29.956-66.783,66.783c0,12.366,3.439,23.916,9.32,33.86l-67.456,67.456    c-19.515-14.625-43.654-23.403-69.863-23.403c-26.208,0-50.343,8.776-69.857,23.398l-56.328-56.328    c5.878-9.942,9.315-21.49,9.315-33.853c0-36.826-29.956-66.783-66.783-66.783c-36.826,0-66.783,29.956-66.783,66.783    c0,36.826,29.956,66.783,66.783,66.783c12.366,0,23.916-3.439,33.86-9.32l56.326,56.326    c-14.625,19.516-23.403,43.655-23.403,69.864c0,26.209,8.777,50.347,23.403,69.863l-56.326,56.326    c-9.944-5.88-21.494-9.32-33.86-9.32c-36.826,0-66.783,29.956-66.783,66.783C0.001,482.044,29.957,512,66.783,512    c36.826,0,66.783-29.956,66.783-66.783c0-12.364-3.437-23.912-9.316-33.852l56.328-56.328    c19.515,14.621,43.65,23.397,69.858,23.397c26.21,0,50.348-8.777,69.863-23.403l56.326,56.326c-5.88,9.944-9.32,21.494-9.32,33.86    c0,36.826,29.956,66.783,66.783,66.783c36.826,0,66.783-29.956,66.783-66.783C500.87,408.391,470.914,378.435,434.088,378.435z"/>
	</g>
</g>
<g>
</g>
<g>
</g>
<g>
</g>
<g>
</g>
<g>
</g>
<g>
</g>
<g>
</g>
<g>
</g>
<g>
</g>
<g>
</g>
<g>
</g>
<g>
</g>
<g>
</g>
<g>
</g>
<g>
</g>
</svg>
