<?xml version="1.0" encoding="iso-8859-1"?>
<!-- Generator: Adobe Illustrator 19.0.0, SVG Export Plug-In . SVG Version: 6.00 Build 0)  -->
<svg xmlns="http://www.w3.org/2000/svg" xmlns:xlink="http://www.w3.org/1999/xlink" version="1.1" id="Layer_1" x="0px" y="0px" viewBox="0 0 512.001 512.001" style="enable-background:new 0 0 512.001 512.001;" xml:space="preserve">
<g>
	<g>
		<path d="M301.197,71.672L234.414,4.889c-4.783-4.777-11.956-6.195-18.196-3.62c-6.24,2.581-10.305,8.668-10.305,15.423v22.337    C126.29,57.269,64.962,116.774,42.65,192.607l5.415-5.415c9.456-9.462,22.033-14.674,35.413-14.674    c13.38,0,25.956,5.212,35.413,14.674l23.402,23.402c11.656-29.269,34.292-53.277,63.62-66.391v6.054    c0,6.755,4.065,12.842,10.305,15.423c6.229,2.592,13.413,1.163,18.196-3.62l66.783-66.783    C307.718,88.763,307.718,78.187,301.197,71.672z"/>
	</g>
</g>
<g>
	<g>
		<path d="M510.728,216.215c-2.587-6.239-8.674-10.305-15.423-10.305h-22.337c-18.232-79.629-77.74-140.955-153.579-163.265    l5.416,5.416c9.456,9.446,14.673,22.028,14.673,35.414c0,13.385-5.218,25.967-14.684,35.424l-23.39,23.389    c29.271,11.656,53.279,34.29,66.39,63.622h-6.055c-6.75,0-12.837,4.065-15.423,10.305c-2.587,6.24-1.152,13.424,3.62,18.196    l66.783,66.783c3.261,3.261,7.533,4.892,11.804,4.892s8.544-1.631,11.804-4.892l66.783-66.783    C511.881,229.639,513.316,222.454,510.728,216.215z"/>
	</g>
</g>
<g>
	<g>
		<path d="M463.935,324.802c-9.456,9.462-22.033,14.674-35.413,14.674s-25.956-5.212-35.413-14.674L369.708,301.4    c-11.656,29.269-34.292,53.277-63.62,66.391v-6.054c0-6.755-4.065-12.842-10.305-15.423c-6.217-2.587-13.413-1.163-18.196,3.62    l-66.783,66.783c-6.521,6.516-6.521,17.092,0,23.609l66.783,66.783c3.196,3.196,7.467,4.892,11.804,4.892    c2.153,0,4.326-0.413,6.391-1.272c6.239-2.581,10.305-8.668,10.305-15.423v-22.339c79.624-18.239,140.95-77.745,163.262-153.578    L463.935,324.802z"/>
	</g>
</g>
<g>
	<g>
		<path d="M172.522,428.52c0-13.385,5.218-25.967,14.684-35.424l23.39-23.39c-29.271-11.656-53.279-34.29-66.39-63.622h6.055    c6.75,0,12.837-4.065,15.423-10.305c2.587-6.24,1.152-13.424-3.62-18.196l-66.783-66.783c-6.521-6.521-17.087-6.521-23.609,0    L4.891,277.585c-4.772,4.772-6.206,11.956-3.62,18.196c2.587,6.24,8.674,10.305,15.423,10.305h22.337    c18.232,79.63,77.74,140.955,153.58,163.265l-5.415-5.417C177.74,454.487,172.522,441.905,172.522,428.52z"/>
	</g>
</g>
<g>
</g>
<g>
</g>
<g>
</g>
<g>
</g>
<g>
</g>
<g>
</g>
<g>
</g>
<g>
</g>
<g>
</g>
<g>
</g>
<g>
</g>
<g>
</g>
<g>
</g>
<g>
</g>
<g>
</g>
</svg>
