<?xml version="1.0" encoding="iso-8859-1"?>
<!-- Generator: Adobe Illustrator 19.0.0, SVG Export Plug-In . SVG Version: 6.00 Build 0)  -->
<svg xmlns="http://www.w3.org/2000/svg" xmlns:xlink="http://www.w3.org/1999/xlink" version="1.1" id="Layer_1" x="0px" y="0px" viewBox="0 0 512 512" style="enable-background:new 0 0 512 512;" xml:space="preserve">
<g>
	<g>
		<path d="M495.304,478.609H33.391v-33.391h144.696V345.043H33.391v-33.391h178.087V211.478H33.391v-33.391h244.87V77.913H33.391    V16.696C33.391,7.473,25.913,0,16.696,0S0,7.473,0,16.696c0,159.396,0,318.651,0,478.609C0,504.527,7.479,512,16.696,512h478.609    c9.217,0,16.696-7.473,16.696-16.696C512,486.082,504.521,478.609,495.304,478.609z"/>
	</g>
</g>
<g>
	<g>
		<path d="M395.13,211.478H244.87v100.174H395.13c27.619,0,50.087-22.468,50.087-50.087    C445.217,233.946,422.75,211.478,395.13,211.478z"/>
	</g>
</g>
<g>
	<g>
		<path d="M294.957,345.043h-83.478v100.174h83.478c27.619,0,50.087-22.468,50.087-50.087S322.576,345.043,294.957,345.043z"/>
	</g>
</g>
<g>
	<g>
		<path d="M461.913,77.913H311.652v100.174h150.261C489.532,178.087,512,155.619,512,128C512,100.381,489.532,77.913,461.913,77.913    z"/>
	</g>
</g>
<g>
</g>
<g>
</g>
<g>
</g>
<g>
</g>
<g>
</g>
<g>
</g>
<g>
</g>
<g>
</g>
<g>
</g>
<g>
</g>
<g>
</g>
<g>
</g>
<g>
</g>
<g>
</g>
<g>
</g>
</svg>
