<?xml version="1.0" encoding="iso-8859-1"?>
<!-- Generator: Adobe Illustrator 19.0.0, SVG Export Plug-In . SVG Version: 6.00 Build 0)  -->
<svg xmlns="http://www.w3.org/2000/svg" xmlns:xlink="http://www.w3.org/1999/xlink" version="1.1" id="Layer_1" x="0px" y="0px" viewBox="0 0 512 512" style="enable-background:new 0 0 512 512;" xml:space="preserve">
<g>
	<g>
		<path d="M495.304,478.609h-61.217V333.913H333.913v144.696h-33.391V333.913H200.348v144.696h-33.391V300.522H66.783v178.087    H33.391V16.696C33.391,7.473,25.913,0,16.696,0S0,7.473,0,16.696v478.609C0,504.527,7.479,512,16.696,512    c52.846,0,420.943,0,478.609,0c9.217,0,16.696-7.473,16.696-16.696C512,486.082,504.521,478.609,495.304,478.609z"/>
	</g>
</g>
<g>
	<g>
		<path d="M116.87,166.957c-27.619,0-50.087,22.468-50.087,50.087v50.087h100.174v-50.087    C166.957,189.424,144.489,166.957,116.87,166.957z"/>
	</g>
</g>
<g>
	<g>
		<rect x="200.348" y="200.348" width="100.174" height="100.174"/>
	</g>
</g>
<g>
	<g>
		<path d="M250.435,100.174c-27.619,0-50.087,22.468-50.087,50.087v16.696h100.174v-16.696    C300.522,122.642,278.054,100.174,250.435,100.174z"/>
	</g>
</g>
<g>
	<g>
		<rect x="333.913" y="166.957" width="100.174" height="133.565"/>
	</g>
</g>
<g>
	<g>
		<path d="M384,33.391c-27.619,0-50.087,22.468-50.087,50.087v50.087h100.174V83.478C434.087,55.859,411.619,33.391,384,33.391z"/>
	</g>
</g>
<g>
</g>
<g>
</g>
<g>
</g>
<g>
</g>
<g>
</g>
<g>
</g>
<g>
</g>
<g>
</g>
<g>
</g>
<g>
</g>
<g>
</g>
<g>
</g>
<g>
</g>
<g>
</g>
<g>
</g>
</svg>
