<?xml version="1.0" encoding="iso-8859-1"?>
<!-- Generator: Adobe Illustrator 19.0.0, SVG Export Plug-In . SVG Version: 6.00 Build 0)  -->
<svg xmlns="http://www.w3.org/2000/svg" xmlns:xlink="http://www.w3.org/1999/xlink" version="1.1" id="Layer_1" x="0px" y="0px" viewBox="0 0 512 512" style="enable-background:new 0 0 512 512;" xml:space="preserve">
<g>
	<g>
		<path d="M495.304,478.609h-27.826V194.783c0-9.223-7.479-16.696-16.696-16.696s-16.696,7.473-16.696,16.696v283.826h-66.783    V328.348c0-9.223-7.479-16.696-16.696-16.696s-16.696,7.473-16.696,16.696v150.261H233.739V261.565    c0-9.223-7.479-16.696-16.696-16.696c-9.217,0-16.696,7.473-16.696,16.696v217.043h-66.783V395.13    c0-9.223-7.479-16.696-16.696-16.696s-16.696,7.473-16.696,16.696v83.478H33.391V16.696C33.391,7.473,25.913,0,16.696,0    S0,7.473,0,16.696v478.609C0,504.527,7.479,512,16.696,512h478.609c9.217,0,16.696-7.473,16.696-16.696    C512,486.082,504.521,478.609,495.304,478.609z"/>
	</g>
</g>
<g>
	<g>
		<path d="M450.783,11.13c-27.619,0-50.087,22.468-50.087,50.087c0,10.252,3.119,19.779,8.425,27.726l-43.681,58.249    c-4.717-1.476-9.633-2.497-14.83-2.497c-11.748,0-22.42,4.234-30.972,11.03l-53.507-17.831c0.644-3.201,1-6.507,1-9.895    c0-27.619-22.468-50.087-50.087-50.087c-27.619,0-50.087,22.468-50.087,50.087c0,11.145,3.783,21.349,9.963,29.678l-47.856,55.475    c-3.924-0.991-7.964-1.675-12.192-1.675c-27.619,0-50.087,22.468-50.087,50.087c0,27.619,22.468,50.087,50.087,50.087    s50.087-22.468,50.087-50.087c0-11.143-3.781-21.343-9.958-29.672l47.86-55.48c3.922,0.988,7.96,1.673,12.186,1.673    c11.749,0,22.423-4.234,30.975-11.032l53.504,17.83c-0.644,3.202-1.001,6.509-1.001,9.898c0,27.619,22.468,50.087,50.087,50.087    c27.619,0,50.087-22.468,50.087-50.087c0-10.249-3.118-19.772-8.42-27.717l43.685-58.254c4.715,1.474,9.629,2.493,14.822,2.493    c27.619,0,50.087-22.468,50.087-50.087S478.402,11.13,450.783,11.13z"/>
	</g>
</g>
<g>
</g>
<g>
</g>
<g>
</g>
<g>
</g>
<g>
</g>
<g>
</g>
<g>
</g>
<g>
</g>
<g>
</g>
<g>
</g>
<g>
</g>
<g>
</g>
<g>
</g>
<g>
</g>
<g>
</g>
</svg>
