<?xml version="1.0" encoding="iso-8859-1"?>
<!-- Generator: Adobe Illustrator 19.0.0, SVG Export Plug-In . SVG Version: 6.00 Build 0)  -->
<svg xmlns="http://www.w3.org/2000/svg" xmlns:xlink="http://www.w3.org/1999/xlink" version="1.1" id="Layer_1" x="0px" y="0px" viewBox="0 0 512 512" style="enable-background:new 0 0 512 512;" xml:space="preserve">
<g>
	<g>
		<path d="M495.304,478.609h-27.826V128c0-27.619-22.468-50.087-50.087-50.087S367.304,100.381,367.304,128v119.946    c-5.247-1.871-10.812-3.076-16.696-3.076c-27.619,0-50.087,22.468-50.087,50.087v183.652h-66.783V194.783    c0-27.619-22.468-50.087-50.087-50.087c-27.619,0-50.087,22.468-50.087,50.087v119.946c-5.247-1.871-10.812-3.076-16.696-3.076    c-27.619,0-50.087,22.468-50.087,50.087v116.87H33.391V16.696C33.391,7.473,25.913,0,16.696,0S0,7.473,0,16.696v478.609    C0,504.527,7.479,512,16.696,512c368.475,0,254.377,0,478.609,0c9.217,0,16.696-7.473,16.696-16.696    C512,486.082,504.521,478.609,495.304,478.609z M133.565,478.609h-33.391v-116.87c0-9.206,7.49-16.696,16.696-16.696    s16.696,7.49,16.696,16.696V478.609z M367.304,478.609h-33.391V294.957c0-9.206,7.49-16.696,16.696-16.696    s16.696,7.49,16.696,16.696V478.609z"/>
	</g>
</g>
<g>
</g>
<g>
</g>
<g>
</g>
<g>
</g>
<g>
</g>
<g>
</g>
<g>
</g>
<g>
</g>
<g>
</g>
<g>
</g>
<g>
</g>
<g>
</g>
<g>
</g>
<g>
</g>
<g>
</g>
</svg>
