<?xml version="1.0" encoding="iso-8859-1"?>
<!-- Generator: Adobe Illustrator 19.0.0, SVG Export Plug-In . SVG Version: 6.00 Build 0)  -->
<svg xmlns="http://www.w3.org/2000/svg" xmlns:xlink="http://www.w3.org/1999/xlink" version="1.1" id="Layer_1" x="0px" y="0px" viewBox="0 0 512 512" style="enable-background:new 0 0 512 512;" xml:space="preserve">
<g>
	<g>
		<path d="M495.304,478.609H300.522V408.75c19.391-6.914,33.391-25.273,33.391-47.01V261.565c0-21.737-14-40.096-33.391-47.01V128    c0-9.223-7.479-16.696-16.696-16.696c-9.217,0-16.696,7.473-16.696,16.696v86.555c-19.391,6.914-33.391,25.273-33.391,47.01    v100.174c0,21.737,14,40.096,33.391,47.01v69.859H33.391V16.696C33.391,7.473,25.913,0,16.696,0S0,7.473,0,16.696v478.609    C0,504.527,7.479,512,16.696,512h478.609c9.217,0,16.696-7.473,16.696-16.696C512,486.082,504.521,478.609,495.304,478.609z"/>
	</g>
</g>
<g>
	<g>
		<path d="M166.957,114.381V16.696C166.957,7.473,159.478,0,150.261,0c-9.217,0-16.696,7.473-16.696,16.696v97.685    c-19.391,6.914-33.391,25.273-33.391,47.01v100.174c0,21.737,14,40.096,33.391,47.01v86.555c0,9.223,7.479,16.696,16.696,16.696    c9.217,0,16.696-7.473,16.696-16.696v-86.555c19.391-6.914,33.391-25.273,33.391-47.01V161.391    C200.348,139.655,186.348,121.295,166.957,114.381z"/>
	</g>
</g>
<g>
	<g>
		<path d="M434.087,114.381V16.696C434.087,7.473,426.608,0,417.391,0s-16.696,7.473-16.696,16.696v97.685    c-19.391,6.914-33.391,25.273-33.391,47.01v100.174c0,21.737,14,40.096,33.391,47.01v86.555c0,9.223,7.479,16.696,16.696,16.696    s16.696-7.473,16.696-16.696v-86.555c19.391-6.914,33.391-25.273,33.391-47.01V161.391    C467.478,139.655,453.478,121.295,434.087,114.381z"/>
	</g>
</g>
<g>
</g>
<g>
</g>
<g>
</g>
<g>
</g>
<g>
</g>
<g>
</g>
<g>
</g>
<g>
</g>
<g>
</g>
<g>
</g>
<g>
</g>
<g>
</g>
<g>
</g>
<g>
</g>
<g>
</g>
</svg>
