<?xml version="1.0" encoding="iso-8859-1"?>
<!-- Generator: Adobe Illustrator 19.0.0, SVG Export Plug-In . SVG Version: 6.00 Build 0)  -->
<svg xmlns="http://www.w3.org/2000/svg" xmlns:xlink="http://www.w3.org/1999/xlink" version="1.1" id="Layer_1" x="0px" y="0px" viewBox="0 0 512 512" style="enable-background:new 0 0 512 512;" xml:space="preserve">
<g>
	<g>
		<path d="M347.242,272.696c7.442,28.758,33.533,50.087,64.584,50.087h33.391C482.044,322.783,512,292.826,512,256    s-29.956-66.783-66.783-66.783h-33.391c-31.052,0-57.143,21.329-64.584,50.087h-68.981V105.739c0-9.206,7.49-16.696,16.696-16.696    h52.285c7.442,28.758,33.533,50.087,64.584,50.087h33.391c36.826,0,66.783-29.956,66.783-66.783S482.044,5.565,445.217,5.565    h-33.391c-31.052,0-57.143,21.329-64.584,50.087h-52.285c-27.619,0-50.087,22.468-50.087,50.087v133.565h-80.111    c-7.442-28.758-33.533-50.087-64.584-50.087H66.783C29.956,189.217,0,219.174,0,256s29.956,66.783,66.783,66.783h33.391    c31.052,0,57.143-21.329,64.584-50.087h80.111v133.565c0,27.619,22.468,50.087,50.087,50.087h52.285    c7.442,28.758,33.533,50.087,64.584,50.087h33.391c36.826,0,66.783-29.956,66.783-66.783s-29.956-66.783-66.783-66.783h-33.391    c-31.052,0-57.143,21.329-64.584,50.087h-52.285c-9.206,0-16.696-7.49-16.696-16.696V272.696H347.242z"/>
	</g>
</g>
<g>
</g>
<g>
</g>
<g>
</g>
<g>
</g>
<g>
</g>
<g>
</g>
<g>
</g>
<g>
</g>
<g>
</g>
<g>
</g>
<g>
</g>
<g>
</g>
<g>
</g>
<g>
</g>
<g>
</g>
</svg>
