<?xml version="1.0" encoding="iso-8859-1"?>
<!-- Generator: Adobe Illustrator 19.0.0, SVG Export Plug-In . SVG Version: 6.00 Build 0)  -->
<svg xmlns="http://www.w3.org/2000/svg" xmlns:xlink="http://www.w3.org/1999/xlink" version="1.1" id="Layer_1" x="0px" y="0px" viewBox="0 0 512 512" style="enable-background:new 0 0 512 512;" xml:space="preserve">
<g>
	<g>
		<path d="M294.957,0c-9.223,0-16.696,7.473-16.696,16.696v200.348c0,9.223,7.473,16.696,16.696,16.696h200.348    c9.217,0,16.696-7.473,16.696-16.696C512,97.365,414.635,0,294.957,0z"/>
	</g>
</g>
<g>
	<g>
		<path d="M217.043,77.913C97.365,77.913,0,175.278,0,294.957c0,52.27,18.602,101.668,52.431,141.004l181.308-181.308V94.609    C233.739,85.386,226.266,77.913,217.043,77.913z"/>
	</g>
</g>
<g>
	<g>
		<path d="M417.391,278.261H257.348L76.04,459.569C115.376,493.398,164.774,512,217.043,512    c119.679,0,217.044-97.365,217.044-217.043C434.087,285.734,426.614,278.261,417.391,278.261z"/>
	</g>
</g>
<g>
</g>
<g>
</g>
<g>
</g>
<g>
</g>
<g>
</g>
<g>
</g>
<g>
</g>
<g>
</g>
<g>
</g>
<g>
</g>
<g>
</g>
<g>
</g>
<g>
</g>
<g>
</g>
<g>
</g>
</svg>
