<?xml version="1.0" encoding="iso-8859-1"?>
<!-- Generator: Adobe Illustrator 19.0.0, SVG Export Plug-In . SVG Version: 6.00 Build 0)  -->
<svg xmlns="http://www.w3.org/2000/svg" xmlns:xlink="http://www.w3.org/1999/xlink" version="1.1" id="Layer_1" x="0px" y="0px" viewBox="0 0 512 512" style="enable-background:new 0 0 512 512;" xml:space="preserve">
<g>
	<g>
		<path d="M485.514,142.767l-116.182,67.078c5.829,14.259,9.102,29.824,9.102,46.156s-3.273,31.896-9.102,46.156l116.182,67.078    C502.438,335.07,512,296.638,512,256S502.438,176.93,485.514,142.767z"/>
	</g>
</g>
<g>
	<g>
		<path d="M43.204,113.867l116.247,67.115c19.178-24.626,47.497-41.698,79.853-46.141V0.604    C157.626,5.892,86.264,49.611,43.204,113.867z"/>
	</g>
</g>
<g>
	<g>
		<path d="M272.696,0.604v134.236c32.356,4.443,60.676,21.515,79.853,46.141l116.247-67.114    C425.736,49.611,354.374,5.892,272.696,0.604z"/>
	</g>
</g>
<g>
	<g>
		<path d="M352.549,331.018c-19.178,24.626-47.497,41.698-79.853,46.141v134.236c81.678-5.289,153.04-49.006,196.1-113.263    L352.549,331.018z"/>
	</g>
</g>
<g>
	<g>
		<path d="M159.451,331.018L43.204,398.133c43.06,64.256,114.422,107.974,196.1,113.262V377.159    C206.948,372.716,178.628,355.644,159.451,331.018z"/>
	</g>
</g>
<g>
	<g>
		<path d="M142.668,209.844L26.486,142.767C9.562,176.93,0,215.362,0,256s9.562,79.07,26.486,113.233l116.182-67.078    c-5.829-14.259-9.102-29.824-9.102-46.156S136.839,224.104,142.668,209.844z"/>
	</g>
</g>
<g>
</g>
<g>
</g>
<g>
</g>
<g>
</g>
<g>
</g>
<g>
</g>
<g>
</g>
<g>
</g>
<g>
</g>
<g>
</g>
<g>
</g>
<g>
</g>
<g>
</g>
<g>
</g>
<g>
</g>
</svg>
