<?xml version="1.0" encoding="iso-8859-1"?>
<!-- Generator: Adobe Illustrator 19.0.0, SVG Export Plug-In . SVG Version: 6.00 Build 0)  -->
<svg xmlns="http://www.w3.org/2000/svg" xmlns:xlink="http://www.w3.org/1999/xlink" version="1.1" id="Layer_1" x="0px" y="0px" viewBox="0 0 512 512" style="enable-background:new 0 0 512 512;" xml:space="preserve">
<g>
	<g>
		<path d="M217.046,66.783c-27.619,0-50.087,22.468-50.087,50.087v94.609h100.174V116.87    C267.133,89.251,244.665,66.783,217.046,66.783z"/>
	</g>
</g>
<g>
	<g>
		<path d="M83.481,0C55.862,0,33.394,22.468,33.394,50.087v161.391h100.174V50.087C133.568,22.468,111.1,0,83.481,0z"/>
	</g>
</g>
<g>
	<g>
		<path d="M495.302,244.87c-103.427,0-384.349,0-478.603,0c-9.223,0-16.696,7.473-16.696,16.696c0,9.223,7.473,16.696,16.696,16.696    c189.681,0,302.733,0,366.985,0c56.669,0,75.378,0,75.189,0c10.738,0,22.834,0,36.429,0c9.217,0,16.696-7.473,16.696-16.696    C511.997,252.343,504.519,244.87,495.302,244.87z"/>
	</g>
</g>
<g>
	<g>
		<path d="M233.742,311.652v83.478h0c0,27.619,22.468,50.087,50.087,50.087s50.087-22.468,50.087-50.087v-83.478H233.742z"/>
	</g>
</g>
<g>
	<g>
		<path d="M367.307,311.652v150.261c0,27.619,22.468,50.087,50.087,50.087c27.619,0,50.087-22.468,50.087-50.087V311.652H367.307z"/>
	</g>
</g>
<g>
</g>
<g>
</g>
<g>
</g>
<g>
</g>
<g>
</g>
<g>
</g>
<g>
</g>
<g>
</g>
<g>
</g>
<g>
</g>
<g>
</g>
<g>
</g>
<g>
</g>
<g>
</g>
<g>
</g>
</svg>
