<?xml version="1.0" encoding="iso-8859-1"?>
<!-- Generator: Adobe Illustrator 19.0.0, SVG Export Plug-In . SVG Version: 6.00 Build 0)  -->
<svg xmlns="http://www.w3.org/2000/svg" xmlns:xlink="http://www.w3.org/1999/xlink" version="1.1" id="Layer_1" x="0px" y="0px" viewBox="0 0 512 512" style="enable-background:new 0 0 512 512;" xml:space="preserve">
<g>
	<g>
		<path d="M160.003,192c-20.456,0-39.956,4.001-57.953,11.028c9.993,35.697,32.018,66.342,61.489,87.311    c11.055-33.701,30.947-63.346,56.873-86.413C201.754,196.288,181.379,192,160.003,192z"/>
	</g>
</g>
<g>
	<g>
		<path d="M256.003,0C167.296,0,93.754,72.96,96.221,164.312c20.049-6.834,41.45-10.712,63.781-10.712    c34.819,0,67.526,9.08,96,24.897c28.474-15.818,61.181-24.897,96-24.897c22.332,0,43.732,3.878,63.781,10.714    C418.25,72.993,344.741,0,256.003,0z"/>
	</g>
</g>
<g>
	<g>
		<path d="M153.604,352c0-7.318,0.462-14.523,1.238-21.637c-40.829-24.34-72.241-62.787-87.304-108.703    C26.746,250.684,0.003,298.234,0.003,352c0,88.225,71.775,160,160,160c21.376,0,41.75-4.289,60.407-11.928    C179.535,463.704,153.604,410.888,153.604,352z"/>
	</g>
</g>
<g>
	<g>
		<path d="M256.004,224.305c-27.686,20.867-48.367,50.424-57.953,84.667c17.997,7.027,37.499,11.03,57.953,11.03    s39.956-4.003,57.953-11.03C304.371,274.729,283.689,245.171,256.004,224.305z"/>
	</g>
</g>
<g>
	<g>
		<path d="M352.004,192c-21.376,0-41.75,4.288-60.407,11.928c25.926,23.067,45.818,52.71,56.873,86.413    c29.468-20.969,51.493-51.615,61.487-87.311C391.96,196.001,372.458,192,352.004,192z"/>
	</g>
</g>
<g>
	<g>
		<path d="M444.468,221.663c-15.063,45.916-46.473,84.362-87.302,108.7c0.776,7.114,1.238,14.319,1.238,21.637    c0,58.886-25.932,111.704-66.806,148.072c18.657,7.64,39.031,11.928,60.406,11.928c88.218,0,159.994-71.775,159.994-160    C511.997,298.235,485.257,250.688,444.468,221.663z"/>
	</g>
</g>
<g>
	<g>
		<path d="M319.785,347.688c-20.049,6.834-41.45,10.712-63.782,10.712s-43.732-3.878-63.781-10.712    c-1.464,54.243,23.877,101.932,63.781,132.009C296.091,449.481,321.243,401.695,319.785,347.688z"/>
	</g>
</g>
<g>
</g>
<g>
</g>
<g>
</g>
<g>
</g>
<g>
</g>
<g>
</g>
<g>
</g>
<g>
</g>
<g>
</g>
<g>
</g>
<g>
</g>
<g>
</g>
<g>
</g>
<g>
</g>
<g>
</g>
</svg>
