<?xml version="1.0" encoding="iso-8859-1"?>
<!-- Generator: Adobe Illustrator 19.0.0, SVG Export Plug-In . SVG Version: 6.00 Build 0)  -->
<svg xmlns="http://www.w3.org/2000/svg" xmlns:xlink="http://www.w3.org/1999/xlink" version="1.1" id="Layer_1" x="0px" y="0px" viewBox="0 0 512 512" style="enable-background:new 0 0 512 512;" xml:space="preserve">
<g>
	<g>
		<path d="M478.526,23.616L410.553,0.87c-8.882-2.942-18.429,1.814-21.382,10.658c-2.964,8.848,1.809,18.423,10.658,21.382    l28.99,9.701L44.906,234.566c-8.342,4.174-11.725,14.321-7.556,22.669c4.194,8.374,14.322,11.72,22.669,7.556L444.301,72.65    l-9.902,29.598c-2.964,8.848,1.809,18.423,10.658,21.382c8.935,2.978,18.444-1.88,21.382-10.658l22.746-67.974    C492.143,36.149,487.37,26.575,478.526,23.616z"/>
	</g>
</g>
<g>
	<g>
		<path d="M458.734,162.847c-27.948,0-50.683,22.735-50.683,50.683v230.891h101.367V213.53    C509.417,185.582,486.682,162.847,458.734,162.847z"/>
	</g>
</g>
<g>
	<g>
		<path d="M323.578,230.425c-27.948,0-50.684,22.735-50.684,50.683v163.313h101.367V281.108    C374.261,253.16,351.526,230.425,323.578,230.425z"/>
	</g>
</g>
<g>
	<g>
		<path d="M53.266,365.581c-27.948,0-50.683,22.735-50.683,50.683v28.158h101.367v-28.158    C103.949,388.316,81.214,365.581,53.266,365.581z"/>
	</g>
</g>
<g>
	<g>
		<path d="M188.422,298.003c-27.948,0-50.683,22.735-50.683,50.683v95.735h101.367v-95.735    C239.105,320.738,216.37,298.003,188.422,298.003z"/>
	</g>
</g>
<g>
	<g>
		<path d="M2.582,478.211v16.895c0,9.333,7.562,16.894,16.894,16.894c359.046,0,114.312,0,473.04,0h0.006    c9.333,0,16.895-7.562,16.895-16.894v-16.895C343.082,478.211,193.75,478.211,2.582,478.211z"/>
	</g>
</g>
<g>
</g>
<g>
</g>
<g>
</g>
<g>
</g>
<g>
</g>
<g>
</g>
<g>
</g>
<g>
</g>
<g>
</g>
<g>
</g>
<g>
</g>
<g>
</g>
<g>
</g>
<g>
</g>
<g>
</g>
</svg>
